<mxfile host="app.diagrams.net" modified="2022-02-06T15:33:21.595Z" agent="5.0 (Windows NT 10.0; Win64; x64) AppleWebKit/537.36 (KHTML, like Gecko) Chrome/97.0.4692.99 Safari/537.36" etag="Bd4nIjJl7yUrz6o2uESo" version="16.5.3" type="github">
  <diagram id="aS8oaicNbCkJTfkluQLp" name="第 1 页">
    <mxGraphModel dx="1865" dy="1660" grid="1" gridSize="10" guides="1" tooltips="1" connect="1" arrows="1" fold="1" page="1" pageScale="1" pageWidth="827" pageHeight="1169" math="0" shadow="0">
      <root>
        <mxCell id="0" />
        <mxCell id="1" parent="0" />
        <mxCell id="ZQoaphtTxRef-fi8NCxe-1" value="Sequtial Model&lt;br&gt;(Tuned)" style="rounded=1;whiteSpace=wrap;html=1;fontSize=16;strokeWidth=2;fillColor=#dae8fc;align=center;strokeColor=#6c8ebf;shadow=1;" parent="1" vertex="1">
          <mxGeometry x="170" y="130.00000000000006" width="239" height="80.25" as="geometry" />
        </mxCell>
        <mxCell id="qPcQ9MrOAGg3BTobNgeT-1" value="" style="rounded=1;whiteSpace=wrap;html=1;fontSize=16;fontColor=#000000;strokeWidth=2;fillColor=none;align=center;strokeColor=#000000;shadow=0;dashed=1;" parent="1" vertex="1">
          <mxGeometry x="179.5" y="440" width="220" height="52.5" as="geometry" />
        </mxCell>
        <mxCell id="FrOMpBuzF8apIuOrP_3H-1" value="&lt;font color=&quot;#0d0d0d&quot;&gt;v1&lt;/font&gt;" style="ellipse;whiteSpace=wrap;html=1;aspect=fixed;fontSize=19;fontColor=#3399FF;strokeWidth=2;fillColor=none;strokeColor=#6C8EBF;" parent="1" vertex="1">
          <mxGeometry x="199.5" y="447.5" width="37.5" height="37.5" as="geometry" />
        </mxCell>
        <mxCell id="FrOMpBuzF8apIuOrP_3H-2" value="&lt;font color=&quot;#0d0d0d&quot;&gt;v2&lt;/font&gt;" style="ellipse;whiteSpace=wrap;html=1;aspect=fixed;fontSize=19;fontColor=#3399FF;strokeWidth=2;fillColor=none;strokeColor=#6C8EBF;" parent="1" vertex="1">
          <mxGeometry x="270.75" y="447.5" width="37.5" height="37.5" as="geometry" />
        </mxCell>
        <mxCell id="FrOMpBuzF8apIuOrP_3H-3" value="&lt;font color=&quot;#0d0d0d&quot;&gt;v3&lt;/font&gt;" style="ellipse;whiteSpace=wrap;html=1;aspect=fixed;fontSize=19;fontColor=#3399FF;strokeWidth=2;fillColor=none;strokeColor=#6C8EBF;" parent="1" vertex="1">
          <mxGeometry x="339.5" y="447.5" width="37.5" height="37.5" as="geometry" />
        </mxCell>
        <mxCell id="FrOMpBuzF8apIuOrP_3H-5" value="" style="endArrow=block;html=1;rounded=0;exitX=0.5;exitY=0;exitDx=0;exitDy=0;entryX=0.5;entryY=1;entryDx=0;entryDy=0;endFill=1;strokeWidth=2;" parent="1" source="qPcQ9MrOAGg3BTobNgeT-1" target="ZQoaphtTxRef-fi8NCxe-1" edge="1">
          <mxGeometry width="50" height="50" relative="1" as="geometry">
            <mxPoint x="250" y="240" as="sourcePoint" />
            <mxPoint x="300" y="190" as="targetPoint" />
          </mxGeometry>
        </mxCell>
        <mxCell id="FrOMpBuzF8apIuOrP_3H-6" value="&lt;font style=&quot;font-size: 24px&quot;&gt;User Behavaior&lt;/font&gt;" style="text;html=1;resizable=0;autosize=1;align=center;verticalAlign=middle;points=[];fillColor=none;strokeColor=none;rounded=0;" parent="1" vertex="1">
          <mxGeometry x="210" y="510" width="180" height="20" as="geometry" />
        </mxCell>
        <mxCell id="FrOMpBuzF8apIuOrP_3H-8" value="MLP" style="rounded=1;whiteSpace=wrap;html=1;fontSize=16;strokeWidth=2;fillColor=#dae8fc;align=center;strokeColor=#6c8ebf;shadow=1;" parent="1" vertex="1">
          <mxGeometry x="-70" y="140.12" width="130" height="60" as="geometry" />
        </mxCell>
        <mxCell id="FrOMpBuzF8apIuOrP_3H-9" value="" style="rounded=1;whiteSpace=wrap;html=1;fontSize=16;fontColor=#000000;strokeWidth=2;fillColor=none;align=center;strokeColor=#000000;shadow=0;dashed=1;" parent="1" vertex="1">
          <mxGeometry x="-70" y="250" width="130" height="52.5" as="geometry" />
        </mxCell>
        <mxCell id="FrOMpBuzF8apIuOrP_3H-10" value="&lt;font color=&quot;#0d0d0d&quot;&gt;a1&lt;/font&gt;" style="ellipse;whiteSpace=wrap;html=1;aspect=fixed;fontSize=19;fontColor=#3399FF;strokeWidth=2;fillColor=none;strokeColor=#6C8EBF;" parent="1" vertex="1">
          <mxGeometry x="-50" y="257.5" width="37.5" height="37.5" as="geometry" />
        </mxCell>
        <mxCell id="FrOMpBuzF8apIuOrP_3H-11" value="&lt;font color=&quot;#0d0d0d&quot;&gt;a2&lt;/font&gt;" style="ellipse;whiteSpace=wrap;html=1;aspect=fixed;fontSize=19;fontColor=#3399FF;strokeWidth=2;fillColor=none;strokeColor=#6C8EBF;" parent="1" vertex="1">
          <mxGeometry y="257.5" width="37.5" height="37.5" as="geometry" />
        </mxCell>
        <mxCell id="FrOMpBuzF8apIuOrP_3H-12" value="&lt;font style=&quot;font-size: 24px&quot;&gt;User Profile&lt;/font&gt;" style="text;html=1;resizable=0;autosize=1;align=center;verticalAlign=middle;points=[];fillColor=none;strokeColor=none;rounded=0;" parent="1" vertex="1">
          <mxGeometry x="-60" y="320" width="140" height="20" as="geometry" />
        </mxCell>
        <mxCell id="FrOMpBuzF8apIuOrP_3H-13" value="" style="endArrow=block;html=1;rounded=0;exitX=0.531;exitY=0;exitDx=0;exitDy=0;entryX=0.5;entryY=1;entryDx=0;entryDy=0;endFill=1;strokeWidth=2;exitPerimeter=0;" parent="1" source="FrOMpBuzF8apIuOrP_3H-9" edge="1">
          <mxGeometry width="50" height="50" relative="1" as="geometry">
            <mxPoint x="-1" y="239.87" as="sourcePoint" />
            <mxPoint x="-1" y="200.12" as="targetPoint" />
          </mxGeometry>
        </mxCell>
        <mxCell id="FrOMpBuzF8apIuOrP_3H-15" value="" style="endArrow=block;html=1;rounded=0;exitX=0.531;exitY=0;exitDx=0;exitDy=0;endFill=1;strokeWidth=2;exitPerimeter=0;edgeStyle=elbowEdgeStyle;elbow=vertical;entryX=0;entryY=0.5;entryDx=0;entryDy=0;" parent="1" target="FrOMpBuzF8apIuOrP_3H-16" edge="1">
          <mxGeometry width="50" height="50" relative="1" as="geometry">
            <mxPoint x="-0.9700000000000273" y="140.12" as="sourcePoint" />
            <mxPoint x="-40" y="50" as="targetPoint" />
            <Array as="points">
              <mxPoint x="-1" y="50" />
            </Array>
          </mxGeometry>
        </mxCell>
        <mxCell id="FrOMpBuzF8apIuOrP_3H-16" value="Add" style="rounded=1;whiteSpace=wrap;html=1;fontSize=16;strokeWidth=2;fillColor=#dae8fc;align=center;strokeColor=#6c8ebf;shadow=1;" parent="1" vertex="1">
          <mxGeometry x="30.75" y="30" width="240" height="40" as="geometry" />
        </mxCell>
        <mxCell id="FrOMpBuzF8apIuOrP_3H-17" value="" style="endArrow=block;html=1;rounded=0;exitX=0.5;exitY=0;exitDx=0;exitDy=0;endFill=1;strokeWidth=2;edgeStyle=elbowEdgeStyle;elbow=vertical;entryX=1;entryY=0.5;entryDx=0;entryDy=0;" parent="1" target="FrOMpBuzF8apIuOrP_3H-16" edge="1">
          <mxGeometry width="50" height="50" relative="1" as="geometry">
            <mxPoint x="299.71" y="130" as="sourcePoint" />
            <mxPoint x="300" y="50" as="targetPoint" />
            <Array as="points">
              <mxPoint x="300" y="50" />
            </Array>
          </mxGeometry>
        </mxCell>
        <mxCell id="FrOMpBuzF8apIuOrP_3H-20" value="" style="endArrow=block;html=1;rounded=0;exitX=0.5;exitY=0;exitDx=0;exitDy=0;entryX=0.5;entryY=1;entryDx=0;entryDy=0;endFill=1;strokeWidth=2;" parent="1" edge="1">
          <mxGeometry width="50" height="50" relative="1" as="geometry">
            <mxPoint x="150" y="29.75" as="sourcePoint" />
            <mxPoint x="150" y="-10" as="targetPoint" />
          </mxGeometry>
        </mxCell>
        <mxCell id="FrOMpBuzF8apIuOrP_3H-21" value="&lt;font style=&quot;font-size: 24px&quot;&gt;User Embedding&lt;/font&gt;" style="text;html=1;resizable=0;autosize=1;align=center;verticalAlign=middle;points=[];fillColor=none;strokeColor=none;rounded=0;" parent="1" vertex="1">
          <mxGeometry x="65" y="-40" width="190" height="20" as="geometry" />
        </mxCell>
        <mxCell id="FrOMpBuzF8apIuOrP_3H-22" value="&lt;font style=&quot;font-size: 36px&quot;&gt;Sequtial Model&lt;br&gt;(Fixed)&lt;/font&gt;" style="rounded=1;whiteSpace=wrap;html=1;fontSize=16;strokeWidth=2;fillColor=#dae8fc;align=center;strokeColor=#6c8ebf;shadow=1;" parent="1" vertex="1">
          <mxGeometry x="1090" y="120" width="280" height="130" as="geometry" />
        </mxCell>
        <mxCell id="FrOMpBuzF8apIuOrP_3H-23" value="" style="rounded=1;whiteSpace=wrap;html=1;fontSize=16;fontColor=#000000;strokeWidth=2;fillColor=none;align=center;strokeColor=#000000;shadow=0;dashed=1;" parent="1" vertex="1">
          <mxGeometry x="1249.5" y="448.25" width="220" height="52.5" as="geometry" />
        </mxCell>
        <mxCell id="FrOMpBuzF8apIuOrP_3H-24" value="&lt;font color=&quot;#0d0d0d&quot;&gt;v1&lt;/font&gt;" style="ellipse;whiteSpace=wrap;html=1;aspect=fixed;fontSize=19;fontColor=#3399FF;strokeWidth=2;fillColor=none;strokeColor=#6C8EBF;" parent="1" vertex="1">
          <mxGeometry x="1269.5" y="455.75" width="37.5" height="37.5" as="geometry" />
        </mxCell>
        <mxCell id="FrOMpBuzF8apIuOrP_3H-25" value="&lt;font color=&quot;#0d0d0d&quot;&gt;v2&lt;/font&gt;" style="ellipse;whiteSpace=wrap;html=1;aspect=fixed;fontSize=19;fontColor=#3399FF;strokeWidth=2;fillColor=none;strokeColor=#6C8EBF;" parent="1" vertex="1">
          <mxGeometry x="1340.75" y="455.75" width="37.5" height="37.5" as="geometry" />
        </mxCell>
        <mxCell id="FrOMpBuzF8apIuOrP_3H-26" value="&lt;font color=&quot;#0d0d0d&quot;&gt;v3&lt;/font&gt;" style="ellipse;whiteSpace=wrap;html=1;aspect=fixed;fontSize=19;fontColor=#3399FF;strokeWidth=2;fillColor=none;strokeColor=#6C8EBF;" parent="1" vertex="1">
          <mxGeometry x="1410" y="456.25" width="37" height="37" as="geometry" />
        </mxCell>
        <mxCell id="FrOMpBuzF8apIuOrP_3H-27" value="" style="endArrow=block;html=1;rounded=0;entryX=0.5;entryY=1;entryDx=0;entryDy=0;endFill=1;strokeWidth=2;exitX=0.479;exitY=0;exitDx=0;exitDy=0;exitPerimeter=0;" parent="1" source="FrOMpBuzF8apIuOrP_3H-49" target="FrOMpBuzF8apIuOrP_3H-22" edge="1">
          <mxGeometry width="50" height="50" relative="1" as="geometry">
            <mxPoint x="1210" y="390" as="sourcePoint" />
            <mxPoint x="1220" y="180" as="targetPoint" />
          </mxGeometry>
        </mxCell>
        <mxCell id="FrOMpBuzF8apIuOrP_3H-28" value="&lt;font style=&quot;font-size: 24px&quot;&gt;User Behavaior&lt;/font&gt;" style="text;html=1;resizable=0;autosize=1;align=center;verticalAlign=middle;points=[];fillColor=none;strokeColor=none;rounded=0;" parent="1" vertex="1">
          <mxGeometry x="1280" y="518.25" width="180" height="20" as="geometry" />
        </mxCell>
        <mxCell id="FrOMpBuzF8apIuOrP_3H-29" value="&lt;font style=&quot;font-size: 36px&quot;&gt;MLP&lt;/font&gt;" style="rounded=1;whiteSpace=wrap;html=1;fontSize=16;strokeWidth=2;fillColor=#dae8fc;align=center;strokeColor=#6c8ebf;shadow=1;" parent="1" vertex="1">
          <mxGeometry x="730" y="120" width="170" height="60" as="geometry" />
        </mxCell>
        <mxCell id="FrOMpBuzF8apIuOrP_3H-30" value="" style="rounded=1;whiteSpace=wrap;html=1;fontSize=16;fontColor=#000000;strokeWidth=2;fillColor=none;align=center;strokeColor=#000000;shadow=0;dashed=1;" parent="1" vertex="1">
          <mxGeometry x="730" y="229.88" width="130" height="52.5" as="geometry" />
        </mxCell>
        <mxCell id="FrOMpBuzF8apIuOrP_3H-31" value="&lt;font color=&quot;#0d0d0d&quot;&gt;a1&lt;/font&gt;" style="ellipse;whiteSpace=wrap;html=1;aspect=fixed;fontSize=19;fontColor=#3399FF;strokeWidth=2;fillColor=none;strokeColor=#6C8EBF;" parent="1" vertex="1">
          <mxGeometry x="750" y="237.38" width="37.5" height="37.5" as="geometry" />
        </mxCell>
        <mxCell id="FrOMpBuzF8apIuOrP_3H-32" value="&lt;font color=&quot;#0d0d0d&quot;&gt;a2&lt;/font&gt;" style="ellipse;whiteSpace=wrap;html=1;aspect=fixed;fontSize=19;fontColor=#3399FF;strokeWidth=2;fillColor=none;strokeColor=#6C8EBF;" parent="1" vertex="1">
          <mxGeometry x="800" y="237.38" width="37.5" height="37.5" as="geometry" />
        </mxCell>
        <mxCell id="FrOMpBuzF8apIuOrP_3H-33" value="&lt;font style=&quot;font-size: 24px&quot;&gt;User Profile&lt;/font&gt;" style="text;html=1;resizable=0;autosize=1;align=center;verticalAlign=middle;points=[];fillColor=none;strokeColor=none;rounded=0;" parent="1" vertex="1">
          <mxGeometry x="730" y="299.88" width="140" height="20" as="geometry" />
        </mxCell>
        <mxCell id="FrOMpBuzF8apIuOrP_3H-34" value="" style="endArrow=block;html=1;rounded=0;exitX=0.531;exitY=0;exitDx=0;exitDy=0;entryX=0.5;entryY=1;entryDx=0;entryDy=0;endFill=1;strokeWidth=2;exitPerimeter=0;" parent="1" source="FrOMpBuzF8apIuOrP_3H-30" edge="1">
          <mxGeometry width="50" height="50" relative="1" as="geometry">
            <mxPoint x="799" y="219.75" as="sourcePoint" />
            <mxPoint x="799" y="179.9999999999999" as="targetPoint" />
          </mxGeometry>
        </mxCell>
        <mxCell id="FrOMpBuzF8apIuOrP_3H-35" value="" style="endArrow=block;html=1;rounded=0;endFill=1;strokeWidth=2;edgeStyle=elbowEdgeStyle;elbow=vertical;entryX=0;entryY=0.5;entryDx=0;entryDy=0;exitX=0.384;exitY=-0.034;exitDx=0;exitDy=0;exitPerimeter=0;" parent="1" target="FrOMpBuzF8apIuOrP_3H-36" edge="1" source="FrOMpBuzF8apIuOrP_3H-29">
          <mxGeometry width="50" height="50" relative="1" as="geometry">
            <mxPoint x="800" y="110" as="sourcePoint" />
            <mxPoint x="880" y="40" as="targetPoint" />
            <Array as="points">
              <mxPoint x="919" y="40" />
            </Array>
          </mxGeometry>
        </mxCell>
        <mxCell id="FrOMpBuzF8apIuOrP_3H-36" value="Add" style="rounded=1;whiteSpace=wrap;html=1;fontSize=16;strokeWidth=2;fillColor=#dae8fc;align=center;strokeColor=#6c8ebf;shadow=1;" parent="1" vertex="1">
          <mxGeometry x="950.75" y="20" width="240" height="40" as="geometry" />
        </mxCell>
        <mxCell id="FrOMpBuzF8apIuOrP_3H-37" value="" style="endArrow=block;html=1;rounded=0;exitX=0.5;exitY=0;exitDx=0;exitDy=0;endFill=1;strokeWidth=2;edgeStyle=elbowEdgeStyle;elbow=vertical;entryX=1;entryY=0.5;entryDx=0;entryDy=0;" parent="1" target="FrOMpBuzF8apIuOrP_3H-36" edge="1">
          <mxGeometry width="50" height="50" relative="1" as="geometry">
            <mxPoint x="1219.71" y="120" as="sourcePoint" />
            <mxPoint x="1220" y="40" as="targetPoint" />
            <Array as="points">
              <mxPoint x="1220" y="40" />
            </Array>
          </mxGeometry>
        </mxCell>
        <mxCell id="FrOMpBuzF8apIuOrP_3H-39" value="" style="endArrow=block;html=1;rounded=0;exitX=0.5;exitY=0;exitDx=0;exitDy=0;entryX=0.5;entryY=1;entryDx=0;entryDy=0;endFill=1;strokeWidth=2;" parent="1" edge="1">
          <mxGeometry width="50" height="50" relative="1" as="geometry">
            <mxPoint x="1070" y="19.75" as="sourcePoint" />
            <mxPoint x="1070" y="-20" as="targetPoint" />
          </mxGeometry>
        </mxCell>
        <mxCell id="FrOMpBuzF8apIuOrP_3H-40" value="&lt;font style=&quot;font-size: 24px&quot;&gt;User Embedding&lt;/font&gt;" style="text;html=1;resizable=0;autosize=1;align=center;verticalAlign=middle;points=[];fillColor=none;strokeColor=none;rounded=0;" parent="1" vertex="1">
          <mxGeometry x="985" y="-50" width="190" height="20" as="geometry" />
        </mxCell>
        <mxCell id="FrOMpBuzF8apIuOrP_3H-41" value="&lt;font style=&quot;font-size: 36px&quot;&gt;Prompt Generator&lt;/font&gt;" style="rounded=1;whiteSpace=wrap;html=1;fontSize=16;strokeWidth=2;fillColor=#dae8fc;align=center;strokeColor=#6c8ebf;shadow=1;" parent="1" vertex="1">
          <mxGeometry x="712.5" y="339.88" width="205" height="100.12" as="geometry" />
        </mxCell>
        <mxCell id="FrOMpBuzF8apIuOrP_3H-43" value="" style="endArrow=block;html=1;rounded=0;exitX=0;exitY=0.5;exitDx=0;exitDy=0;entryX=0;entryY=0.5;entryDx=0;entryDy=0;endFill=1;strokeWidth=2;edgeStyle=elbowEdgeStyle;elbow=vertical;" parent="1" source="FrOMpBuzF8apIuOrP_3H-30" target="FrOMpBuzF8apIuOrP_3H-41" edge="1">
          <mxGeometry width="50" height="50" relative="1" as="geometry">
            <mxPoint x="560" y="289.63" as="sourcePoint" />
            <mxPoint x="560" y="249.88" as="targetPoint" />
            <Array as="points">
              <mxPoint x="610" y="250" />
              <mxPoint x="530" y="322.88" />
            </Array>
          </mxGeometry>
        </mxCell>
        <mxCell id="FrOMpBuzF8apIuOrP_3H-44" value="" style="rounded=1;whiteSpace=wrap;html=1;fontSize=16;fontColor=#000000;strokeWidth=2;fillColor=none;align=center;strokeColor=#FFB570;shadow=0;dashed=1;" parent="1" vertex="1">
          <mxGeometry x="1020" y="448.25" width="220" height="52.5" as="geometry" />
        </mxCell>
        <mxCell id="FrOMpBuzF8apIuOrP_3H-45" value="&lt;font color=&quot;#0d0d0d&quot;&gt;p1&lt;/font&gt;" style="ellipse;whiteSpace=wrap;html=1;aspect=fixed;fontSize=19;fontColor=#3399FF;strokeWidth=2;fillColor=none;strokeColor=#6C8EBF;" parent="1" vertex="1">
          <mxGeometry x="1041.25" y="455.75" width="37.5" height="37.5" as="geometry" />
        </mxCell>
        <mxCell id="FrOMpBuzF8apIuOrP_3H-46" value="&lt;font color=&quot;#0d0d0d&quot;&gt;p2&lt;/font&gt;" style="ellipse;whiteSpace=wrap;html=1;aspect=fixed;fontSize=19;fontColor=#3399FF;strokeWidth=2;fillColor=none;strokeColor=#6C8EBF;" parent="1" vertex="1">
          <mxGeometry x="1090" y="453.25" width="42.5" height="42.5" as="geometry" />
        </mxCell>
        <mxCell id="FrOMpBuzF8apIuOrP_3H-47" value="&lt;font color=&quot;#0d0d0d&quot;&gt;pn&lt;/font&gt;" style="ellipse;whiteSpace=wrap;html=1;aspect=fixed;fontSize=19;fontColor=#3399FF;strokeWidth=2;fillColor=none;strokeColor=#6C8EBF;" parent="1" vertex="1">
          <mxGeometry x="1191.25" y="453.25" width="42.5" height="42.5" as="geometry" />
        </mxCell>
        <mxCell id="FrOMpBuzF8apIuOrP_3H-48" value="&lt;b&gt;&lt;font style=&quot;font-size: 36px&quot;&gt;...&lt;/font&gt;&lt;/b&gt;" style="text;html=1;resizable=0;autosize=1;align=center;verticalAlign=middle;points=[];fillColor=none;strokeColor=none;rounded=0;fontSize=24;" parent="1" vertex="1">
          <mxGeometry x="1141.25" y="444.5" width="50" height="40" as="geometry" />
        </mxCell>
        <mxCell id="FrOMpBuzF8apIuOrP_3H-49" value="" style="rounded=1;whiteSpace=wrap;html=1;fontSize=16;fontColor=#000000;strokeWidth=2;fillColor=none;align=center;strokeColor=#000000;shadow=0;dashed=1;" parent="1" vertex="1">
          <mxGeometry x="991" y="433.5" width="500" height="80" as="geometry" />
        </mxCell>
        <mxCell id="FrOMpBuzF8apIuOrP_3H-50" value="&lt;font style=&quot;font-size: 24px&quot;&gt;Prompt&lt;/font&gt;" style="text;html=1;resizable=0;autosize=1;align=center;verticalAlign=middle;points=[];fillColor=none;strokeColor=none;rounded=0;" parent="1" vertex="1">
          <mxGeometry x="1086.25" y="518.25" width="90" height="20" as="geometry" />
        </mxCell>
        <mxCell id="FrOMpBuzF8apIuOrP_3H-51" value="" style="endArrow=block;html=1;rounded=0;exitX=0.446;exitY=1.023;exitDx=0;exitDy=0;entryX=0.04;entryY=0.5;entryDx=0;entryDy=0;endFill=1;strokeWidth=2;edgeStyle=elbowEdgeStyle;elbow=vertical;entryPerimeter=0;exitPerimeter=0;" parent="1" source="FrOMpBuzF8apIuOrP_3H-41" target="FrOMpBuzF8apIuOrP_3H-49" edge="1">
          <mxGeometry width="50" height="50" relative="1" as="geometry">
            <mxPoint x="880" y="430" as="sourcePoint" />
            <mxPoint x="885" y="543.75" as="targetPoint" />
            <Array as="points">
              <mxPoint x="900" y="474" />
            </Array>
          </mxGeometry>
        </mxCell>
        <mxCell id="FrOMpBuzF8apIuOrP_3H-108" value="Sequtial Model&lt;br&gt;(Tuned)" style="rounded=1;whiteSpace=wrap;html=1;fontSize=16;strokeWidth=2;fillColor=#dae8fc;align=center;strokeColor=#6c8ebf;shadow=1;" parent="1" vertex="1">
          <mxGeometry x="3089.9999999999995" y="147.38000000000005" width="239" height="80.25" as="geometry" />
        </mxCell>
        <mxCell id="FrOMpBuzF8apIuOrP_3H-109" value="" style="rounded=1;whiteSpace=wrap;html=1;fontSize=16;fontColor=#000000;strokeWidth=2;fillColor=none;align=center;strokeColor=#000000;shadow=0;dashed=1;" parent="1" vertex="1">
          <mxGeometry x="3219.4999999999995" y="470.88" width="220" height="52.5" as="geometry" />
        </mxCell>
        <mxCell id="FrOMpBuzF8apIuOrP_3H-110" value="&lt;font color=&quot;#0d0d0d&quot;&gt;v1&lt;/font&gt;" style="ellipse;whiteSpace=wrap;html=1;aspect=fixed;fontSize=19;fontColor=#3399FF;strokeWidth=2;fillColor=none;strokeColor=#6C8EBF;" parent="1" vertex="1">
          <mxGeometry x="3239.4999999999995" y="478.38" width="37.5" height="37.5" as="geometry" />
        </mxCell>
        <mxCell id="FrOMpBuzF8apIuOrP_3H-111" value="&lt;font color=&quot;#0d0d0d&quot;&gt;v2&lt;/font&gt;" style="ellipse;whiteSpace=wrap;html=1;aspect=fixed;fontSize=19;fontColor=#3399FF;strokeWidth=2;fillColor=none;strokeColor=#6C8EBF;" parent="1" vertex="1">
          <mxGeometry x="3310.7499999999995" y="478.38" width="37.5" height="37.5" as="geometry" />
        </mxCell>
        <mxCell id="FrOMpBuzF8apIuOrP_3H-112" value="&lt;font color=&quot;#0d0d0d&quot;&gt;v3&lt;/font&gt;" style="ellipse;whiteSpace=wrap;html=1;aspect=fixed;fontSize=19;fontColor=#3399FF;strokeWidth=2;fillColor=none;strokeColor=#6C8EBF;" parent="1" vertex="1">
          <mxGeometry x="3379.9999999999995" y="478.88" width="37" height="37" as="geometry" />
        </mxCell>
        <mxCell id="FrOMpBuzF8apIuOrP_3H-113" value="" style="endArrow=block;html=1;rounded=0;entryX=0.5;entryY=1;entryDx=0;entryDy=0;endFill=1;strokeWidth=2;exitX=0.479;exitY=0;exitDx=0;exitDy=0;exitPerimeter=0;" parent="1" source="FrOMpBuzF8apIuOrP_3H-133" target="FrOMpBuzF8apIuOrP_3H-108" edge="1">
          <mxGeometry width="50" height="50" relative="1" as="geometry">
            <mxPoint x="3209.9999999999995" y="417.38" as="sourcePoint" />
            <mxPoint x="3219.9999999999995" y="207.38" as="targetPoint" />
          </mxGeometry>
        </mxCell>
        <mxCell id="FrOMpBuzF8apIuOrP_3H-114" value="&lt;font style=&quot;font-size: 24px&quot;&gt;User Behavaior&lt;/font&gt;" style="text;html=1;resizable=0;autosize=1;align=center;verticalAlign=middle;points=[];fillColor=none;strokeColor=none;rounded=0;" parent="1" vertex="1">
          <mxGeometry x="3249.9999999999995" y="540.88" width="180" height="20" as="geometry" />
        </mxCell>
        <mxCell id="FrOMpBuzF8apIuOrP_3H-115" value="MLP" style="rounded=1;whiteSpace=wrap;html=1;fontSize=16;strokeWidth=2;fillColor=#dae8fc;align=center;strokeColor=#6c8ebf;shadow=1;" parent="1" vertex="1">
          <mxGeometry x="2849.9999999999995" y="157.5" width="130" height="60" as="geometry" />
        </mxCell>
        <mxCell id="FrOMpBuzF8apIuOrP_3H-116" value="" style="rounded=1;whiteSpace=wrap;html=1;fontSize=16;fontColor=#000000;strokeWidth=2;fillColor=none;align=center;strokeColor=#000000;shadow=0;dashed=1;" parent="1" vertex="1">
          <mxGeometry x="2849.9999999999995" y="267.38" width="130" height="52.5" as="geometry" />
        </mxCell>
        <mxCell id="FrOMpBuzF8apIuOrP_3H-117" value="&lt;font color=&quot;#0d0d0d&quot;&gt;a1&lt;/font&gt;" style="ellipse;whiteSpace=wrap;html=1;aspect=fixed;fontSize=19;fontColor=#3399FF;strokeWidth=2;fillColor=none;strokeColor=#6C8EBF;" parent="1" vertex="1">
          <mxGeometry x="2869.9999999999995" y="274.88" width="37.5" height="37.5" as="geometry" />
        </mxCell>
        <mxCell id="FrOMpBuzF8apIuOrP_3H-118" value="&lt;font color=&quot;#0d0d0d&quot;&gt;a2&lt;/font&gt;" style="ellipse;whiteSpace=wrap;html=1;aspect=fixed;fontSize=19;fontColor=#3399FF;strokeWidth=2;fillColor=none;strokeColor=#6C8EBF;" parent="1" vertex="1">
          <mxGeometry x="2919.9999999999995" y="274.88" width="37.5" height="37.5" as="geometry" />
        </mxCell>
        <mxCell id="FrOMpBuzF8apIuOrP_3H-119" value="&lt;font style=&quot;font-size: 24px&quot;&gt;User Profile&lt;/font&gt;" style="text;html=1;resizable=0;autosize=1;align=center;verticalAlign=middle;points=[];fillColor=none;strokeColor=none;rounded=0;" parent="1" vertex="1">
          <mxGeometry x="2849.9999999999995" y="337.38" width="140" height="20" as="geometry" />
        </mxCell>
        <mxCell id="FrOMpBuzF8apIuOrP_3H-120" value="" style="endArrow=block;html=1;rounded=0;exitX=0.531;exitY=0;exitDx=0;exitDy=0;entryX=0.5;entryY=1;entryDx=0;entryDy=0;endFill=1;strokeWidth=2;exitPerimeter=0;" parent="1" source="FrOMpBuzF8apIuOrP_3H-116" edge="1">
          <mxGeometry width="50" height="50" relative="1" as="geometry">
            <mxPoint x="2918.9999999999995" y="257.25" as="sourcePoint" />
            <mxPoint x="2918.9999999999995" y="217.4999999999999" as="targetPoint" />
          </mxGeometry>
        </mxCell>
        <mxCell id="FrOMpBuzF8apIuOrP_3H-121" value="" style="endArrow=block;html=1;rounded=0;exitX=0.531;exitY=0;exitDx=0;exitDy=0;endFill=1;strokeWidth=2;exitPerimeter=0;edgeStyle=elbowEdgeStyle;elbow=vertical;entryX=0;entryY=0.5;entryDx=0;entryDy=0;" parent="1" target="FrOMpBuzF8apIuOrP_3H-122" edge="1">
          <mxGeometry width="50" height="50" relative="1" as="geometry">
            <mxPoint x="2919.0299999999993" y="157.4999999999999" as="sourcePoint" />
            <mxPoint x="2879.9999999999995" y="67.38" as="targetPoint" />
            <Array as="points">
              <mxPoint x="2918.9999999999995" y="67.38" />
            </Array>
          </mxGeometry>
        </mxCell>
        <mxCell id="FrOMpBuzF8apIuOrP_3H-122" value="Add" style="rounded=1;whiteSpace=wrap;html=1;fontSize=16;strokeWidth=2;fillColor=#dae8fc;align=center;strokeColor=#6c8ebf;shadow=1;" parent="1" vertex="1">
          <mxGeometry x="2950.7499999999995" y="47.38" width="240" height="40" as="geometry" />
        </mxCell>
        <mxCell id="FrOMpBuzF8apIuOrP_3H-123" value="" style="endArrow=block;html=1;rounded=0;exitX=0.5;exitY=0;exitDx=0;exitDy=0;endFill=1;strokeWidth=2;edgeStyle=elbowEdgeStyle;elbow=vertical;entryX=1;entryY=0.5;entryDx=0;entryDy=0;" parent="1" target="FrOMpBuzF8apIuOrP_3H-122" edge="1">
          <mxGeometry width="50" height="50" relative="1" as="geometry">
            <mxPoint x="3219.7099999999996" y="147.38" as="sourcePoint" />
            <mxPoint x="3219.9999999999995" y="67.38" as="targetPoint" />
            <Array as="points">
              <mxPoint x="3219.9999999999995" y="67.38" />
            </Array>
          </mxGeometry>
        </mxCell>
        <mxCell id="FrOMpBuzF8apIuOrP_3H-124" value="" style="endArrow=block;html=1;rounded=0;exitX=0.5;exitY=0;exitDx=0;exitDy=0;entryX=0.5;entryY=1;entryDx=0;entryDy=0;endFill=1;strokeWidth=2;" parent="1" edge="1">
          <mxGeometry width="50" height="50" relative="1" as="geometry">
            <mxPoint x="3069.9999999999995" y="47.13" as="sourcePoint" />
            <mxPoint x="3069.9999999999995" y="7.380000000000003" as="targetPoint" />
          </mxGeometry>
        </mxCell>
        <mxCell id="FrOMpBuzF8apIuOrP_3H-125" value="&lt;font style=&quot;font-size: 24px&quot;&gt;User Embedding&lt;/font&gt;" style="text;html=1;resizable=0;autosize=1;align=center;verticalAlign=middle;points=[];fillColor=none;strokeColor=none;rounded=0;" parent="1" vertex="1">
          <mxGeometry x="2984.9999999999995" y="-22.619999999999997" width="190" height="20" as="geometry" />
        </mxCell>
        <mxCell id="FrOMpBuzF8apIuOrP_3H-126" value="Prompt Generator" style="rounded=1;whiteSpace=wrap;html=1;fontSize=16;strokeWidth=2;fillColor=#dae8fc;align=center;strokeColor=#6c8ebf;shadow=1;" parent="1" vertex="1">
          <mxGeometry x="2854.9999999999995" y="377.38" width="130" height="60" as="geometry" />
        </mxCell>
        <mxCell id="FrOMpBuzF8apIuOrP_3H-127" value="" style="endArrow=block;html=1;rounded=0;exitX=0;exitY=0.5;exitDx=0;exitDy=0;entryX=0;entryY=0.5;entryDx=0;entryDy=0;endFill=1;strokeWidth=2;edgeStyle=elbowEdgeStyle;elbow=vertical;" parent="1" source="FrOMpBuzF8apIuOrP_3H-116" target="FrOMpBuzF8apIuOrP_3H-126" edge="1">
          <mxGeometry width="50" height="50" relative="1" as="geometry">
            <mxPoint x="2829.9999999999995" y="304.13" as="sourcePoint" />
            <mxPoint x="2829.9999999999995" y="264.38" as="targetPoint" />
            <Array as="points">
              <mxPoint x="2799.9999999999995" y="337.38" />
            </Array>
          </mxGeometry>
        </mxCell>
        <mxCell id="FrOMpBuzF8apIuOrP_3H-128" value="" style="rounded=1;whiteSpace=wrap;html=1;fontSize=16;fontColor=#000000;strokeWidth=2;fillColor=none;align=center;strokeColor=#FFB570;shadow=0;dashed=1;" parent="1" vertex="1">
          <mxGeometry x="2989.9999999999995" y="470.88" width="220" height="52.5" as="geometry" />
        </mxCell>
        <mxCell id="FrOMpBuzF8apIuOrP_3H-129" value="&lt;font color=&quot;#0d0d0d&quot;&gt;p1&lt;/font&gt;" style="ellipse;whiteSpace=wrap;html=1;aspect=fixed;fontSize=19;fontColor=#3399FF;strokeWidth=2;fillColor=none;strokeColor=#6C8EBF;" parent="1" vertex="1">
          <mxGeometry x="3011.2499999999995" y="478.38" width="37.5" height="37.5" as="geometry" />
        </mxCell>
        <mxCell id="FrOMpBuzF8apIuOrP_3H-130" value="&lt;font color=&quot;#0d0d0d&quot;&gt;p2&lt;/font&gt;" style="ellipse;whiteSpace=wrap;html=1;aspect=fixed;fontSize=19;fontColor=#3399FF;strokeWidth=2;fillColor=none;strokeColor=#6C8EBF;" parent="1" vertex="1">
          <mxGeometry x="3059.9999999999995" y="475.88" width="42.5" height="42.5" as="geometry" />
        </mxCell>
        <mxCell id="FrOMpBuzF8apIuOrP_3H-131" value="&lt;font color=&quot;#0d0d0d&quot;&gt;pn&lt;/font&gt;" style="ellipse;whiteSpace=wrap;html=1;aspect=fixed;fontSize=19;fontColor=#3399FF;strokeWidth=2;fillColor=none;strokeColor=#6C8EBF;" parent="1" vertex="1">
          <mxGeometry x="3161.2499999999995" y="475.88" width="42.5" height="42.5" as="geometry" />
        </mxCell>
        <mxCell id="FrOMpBuzF8apIuOrP_3H-132" value="&lt;b&gt;&lt;font style=&quot;font-size: 36px&quot;&gt;...&lt;/font&gt;&lt;/b&gt;" style="text;html=1;resizable=0;autosize=1;align=center;verticalAlign=middle;points=[];fillColor=none;strokeColor=none;rounded=0;fontSize=24;" parent="1" vertex="1">
          <mxGeometry x="3111.2499999999995" y="467.13" width="50" height="40" as="geometry" />
        </mxCell>
        <mxCell id="FrOMpBuzF8apIuOrP_3H-133" value="" style="rounded=1;whiteSpace=wrap;html=1;fontSize=16;fontColor=#000000;strokeWidth=2;fillColor=none;align=center;strokeColor=#000000;shadow=0;dashed=1;" parent="1" vertex="1">
          <mxGeometry x="2969.9999999999995" y="457.38" width="500" height="80" as="geometry" />
        </mxCell>
        <mxCell id="FrOMpBuzF8apIuOrP_3H-134" value="&lt;font style=&quot;font-size: 24px&quot;&gt;Prompt&lt;/font&gt;" style="text;html=1;resizable=0;autosize=1;align=center;verticalAlign=middle;points=[];fillColor=none;strokeColor=none;rounded=0;" parent="1" vertex="1">
          <mxGeometry x="3056.2499999999995" y="540.88" width="90" height="20" as="geometry" />
        </mxCell>
        <mxCell id="FrOMpBuzF8apIuOrP_3H-135" value="" style="endArrow=block;html=1;rounded=0;exitX=0.446;exitY=1.023;exitDx=0;exitDy=0;entryX=0.04;entryY=0.5;entryDx=0;entryDy=0;endFill=1;strokeWidth=2;edgeStyle=elbowEdgeStyle;elbow=vertical;entryPerimeter=0;exitPerimeter=0;" parent="1" source="FrOMpBuzF8apIuOrP_3H-126" target="FrOMpBuzF8apIuOrP_3H-133" edge="1">
          <mxGeometry width="50" height="50" relative="1" as="geometry">
            <mxPoint x="2879.9999999999995" y="457.38" as="sourcePoint" />
            <mxPoint x="2884.9999999999995" y="571.13" as="targetPoint" />
            <Array as="points">
              <mxPoint x="2929.9999999999995" y="497.38" />
            </Array>
          </mxGeometry>
        </mxCell>
        <mxCell id="FrOMpBuzF8apIuOrP_3H-138" value="" style="endArrow=none;html=1;rounded=0;fontSize=36;strokeWidth=6;elbow=vertical;dashed=1;dashPattern=1 1;" parent="1" edge="1">
          <mxGeometry width="50" height="50" relative="1" as="geometry">
            <mxPoint x="530" y="560" as="sourcePoint" />
            <mxPoint x="530" y="-60" as="targetPoint" />
          </mxGeometry>
        </mxCell>
        <mxCell id="FrOMpBuzF8apIuOrP_3H-139" value="" style="endArrow=none;html=1;rounded=0;fontSize=36;strokeWidth=6;elbow=vertical;dashed=1;dashPattern=1 1;" parent="1" edge="1">
          <mxGeometry width="50" height="50" relative="1" as="geometry">
            <mxPoint x="2720" y="567.3799999999995" as="sourcePoint" />
            <mxPoint x="2720" y="-52.62" as="targetPoint" />
          </mxGeometry>
        </mxCell>
        <mxCell id="FrOMpBuzF8apIuOrP_3H-140" value="&lt;font style=&quot;font-size: 48px&quot;&gt;(a) Fine Tuning&lt;/font&gt;" style="text;html=1;resizable=0;autosize=1;align=center;verticalAlign=middle;points=[];fillColor=none;strokeColor=none;rounded=0;" parent="1" vertex="1">
          <mxGeometry x="-92.5" y="615" width="340" height="30" as="geometry" />
        </mxCell>
        <mxCell id="FrOMpBuzF8apIuOrP_3H-141" value="&lt;font style=&quot;font-size: 48px&quot;&gt;(b) PPR light&lt;/font&gt;" style="text;html=1;resizable=0;autosize=1;align=center;verticalAlign=middle;points=[];fillColor=none;strokeColor=none;rounded=0;" parent="1" vertex="1">
          <mxGeometry x="832.5" y="615" width="290" height="30" as="geometry" />
        </mxCell>
        <mxCell id="FrOMpBuzF8apIuOrP_3H-142" value="&lt;font style=&quot;font-size: 48px&quot;&gt;(c) PPR full&lt;/font&gt;" style="text;html=1;resizable=0;autosize=1;align=center;verticalAlign=middle;points=[];fillColor=none;strokeColor=none;rounded=0;" parent="1" vertex="1">
          <mxGeometry x="2995" y="642.38" width="260" height="30" as="geometry" />
        </mxCell>
        <mxCell id="Ihp9EkSwN32YHoUl-qDa-11" value="" style="rounded=1;whiteSpace=wrap;html=1;fontSize=16;fontColor=#000000;strokeWidth=2;fillColor=none;align=center;strokeColor=#000000;shadow=0;dashed=1;" vertex="1" parent="1">
          <mxGeometry x="1998.5" y="448.25" width="220" height="52.5" as="geometry" />
        </mxCell>
        <mxCell id="Ihp9EkSwN32YHoUl-qDa-12" value="&lt;font color=&quot;#0d0d0d&quot;&gt;v1&lt;/font&gt;" style="ellipse;whiteSpace=wrap;html=1;aspect=fixed;fontSize=19;fontColor=#3399FF;strokeWidth=2;fillColor=none;strokeColor=#6C8EBF;" vertex="1" parent="1">
          <mxGeometry x="2018.5" y="455.75" width="37.5" height="37.5" as="geometry" />
        </mxCell>
        <mxCell id="Ihp9EkSwN32YHoUl-qDa-13" value="&lt;font color=&quot;#0d0d0d&quot;&gt;v2&lt;/font&gt;" style="ellipse;whiteSpace=wrap;html=1;aspect=fixed;fontSize=19;fontColor=#3399FF;strokeWidth=2;fillColor=none;strokeColor=#6C8EBF;" vertex="1" parent="1">
          <mxGeometry x="2089.75" y="455.75" width="37.5" height="37.5" as="geometry" />
        </mxCell>
        <mxCell id="Ihp9EkSwN32YHoUl-qDa-14" value="&lt;font color=&quot;#0d0d0d&quot;&gt;v3&lt;/font&gt;" style="ellipse;whiteSpace=wrap;html=1;aspect=fixed;fontSize=19;fontColor=#3399FF;strokeWidth=2;fillColor=none;strokeColor=#6C8EBF;" vertex="1" parent="1">
          <mxGeometry x="2159" y="456.25" width="37" height="37" as="geometry" />
        </mxCell>
        <mxCell id="Ihp9EkSwN32YHoUl-qDa-15" value="&lt;font style=&quot;font-size: 24px&quot;&gt;User Behavaior&lt;/font&gt;" style="text;html=1;resizable=0;autosize=1;align=center;verticalAlign=middle;points=[];fillColor=none;strokeColor=none;rounded=0;" vertex="1" parent="1">
          <mxGeometry x="2029" y="518.25" width="180" height="20" as="geometry" />
        </mxCell>
        <mxCell id="Ihp9EkSwN32YHoUl-qDa-16" value="" style="rounded=1;whiteSpace=wrap;html=1;fontSize=16;fontColor=#000000;strokeWidth=2;fillColor=none;align=center;strokeColor=#FFB570;shadow=0;dashed=1;" vertex="1" parent="1">
          <mxGeometry x="1769" y="448.25" width="220" height="52.5" as="geometry" />
        </mxCell>
        <mxCell id="Ihp9EkSwN32YHoUl-qDa-17" value="&lt;font color=&quot;#0d0d0d&quot;&gt;p1&lt;/font&gt;" style="ellipse;whiteSpace=wrap;html=1;aspect=fixed;fontSize=19;fontColor=#3399FF;strokeWidth=2;fillColor=none;strokeColor=#6C8EBF;" vertex="1" parent="1">
          <mxGeometry x="1790.25" y="455.75" width="37.5" height="37.5" as="geometry" />
        </mxCell>
        <mxCell id="Ihp9EkSwN32YHoUl-qDa-18" value="&lt;font color=&quot;#0d0d0d&quot;&gt;p2&lt;/font&gt;" style="ellipse;whiteSpace=wrap;html=1;aspect=fixed;fontSize=19;fontColor=#3399FF;strokeWidth=2;fillColor=none;strokeColor=#6C8EBF;" vertex="1" parent="1">
          <mxGeometry x="1839" y="453.25" width="42.5" height="42.5" as="geometry" />
        </mxCell>
        <mxCell id="Ihp9EkSwN32YHoUl-qDa-19" value="&lt;font color=&quot;#0d0d0d&quot;&gt;pn&lt;/font&gt;" style="ellipse;whiteSpace=wrap;html=1;aspect=fixed;fontSize=19;fontColor=#3399FF;strokeWidth=2;fillColor=none;strokeColor=#6C8EBF;" vertex="1" parent="1">
          <mxGeometry x="1940.25" y="453.25" width="42.5" height="42.5" as="geometry" />
        </mxCell>
        <mxCell id="Ihp9EkSwN32YHoUl-qDa-20" value="&lt;b&gt;&lt;font style=&quot;font-size: 36px&quot;&gt;...&lt;/font&gt;&lt;/b&gt;" style="text;html=1;resizable=0;autosize=1;align=center;verticalAlign=middle;points=[];fillColor=none;strokeColor=none;rounded=0;fontSize=24;" vertex="1" parent="1">
          <mxGeometry x="1890.25" y="444.5" width="50" height="40" as="geometry" />
        </mxCell>
        <mxCell id="Ihp9EkSwN32YHoUl-qDa-21" value="" style="rounded=1;whiteSpace=wrap;html=1;fontSize=16;fontColor=#000000;strokeWidth=2;fillColor=none;align=center;strokeColor=#000000;shadow=0;dashed=1;" vertex="1" parent="1">
          <mxGeometry x="1740" y="433.5" width="500" height="80" as="geometry" />
        </mxCell>
        <mxCell id="Ihp9EkSwN32YHoUl-qDa-22" value="&lt;font style=&quot;font-size: 24px&quot;&gt;Prompt&lt;/font&gt;" style="text;html=1;resizable=0;autosize=1;align=center;verticalAlign=middle;points=[];fillColor=none;strokeColor=none;rounded=0;" vertex="1" parent="1">
          <mxGeometry x="1835.25" y="518.25" width="90" height="20" as="geometry" />
        </mxCell>
        <mxCell id="Ihp9EkSwN32YHoUl-qDa-23" value="&lt;font style=&quot;font-size: 36px&quot;&gt;Augment&lt;/font&gt;" style="rounded=1;whiteSpace=wrap;html=1;fontSize=16;strokeWidth=2;fillColor=#dae8fc;align=center;strokeColor=#6c8ebf;shadow=1;" vertex="1" parent="1">
          <mxGeometry x="1491" y="217.5" width="209" height="82.5" as="geometry" />
        </mxCell>
        <mxCell id="Ihp9EkSwN32YHoUl-qDa-24" value="" style="endArrow=block;html=1;rounded=0;exitX=0.5;exitY=0;exitDx=0;exitDy=0;entryX=0;entryY=0.5;entryDx=0;entryDy=0;endFill=1;strokeWidth=2;fontSize=36;edgeStyle=orthogonalEdgeStyle;" edge="1" parent="1" target="Ihp9EkSwN32YHoUl-qDa-23">
          <mxGeometry width="50" height="50" relative="1" as="geometry">
            <mxPoint x="1359" y="433.5" as="sourcePoint" />
            <mxPoint x="1359" y="393.75" as="targetPoint" />
            <Array as="points">
              <mxPoint x="1359" y="259" />
            </Array>
          </mxGeometry>
        </mxCell>
        <mxCell id="Ihp9EkSwN32YHoUl-qDa-25" value="" style="endArrow=block;html=1;rounded=0;exitX=0.5;exitY=0;exitDx=0;exitDy=0;endFill=1;strokeWidth=2;fontSize=36;edgeStyle=orthogonalEdgeStyle;" edge="1" parent="1">
          <mxGeometry width="50" height="50" relative="1" as="geometry">
            <mxPoint x="1703.25" y="274.88" as="sourcePoint" />
            <mxPoint x="1810" y="430" as="targetPoint" />
            <Array as="points">
              <mxPoint x="1810" y="275" />
            </Array>
          </mxGeometry>
        </mxCell>
        <mxCell id="Ihp9EkSwN32YHoUl-qDa-26" value="&lt;font style=&quot;font-size: 36px&quot;&gt;Sequtial Model&lt;br&gt;(Fixed)&lt;/font&gt;" style="rounded=1;whiteSpace=wrap;html=1;fontSize=16;strokeWidth=2;fillColor=#dae8fc;align=center;strokeColor=#6c8ebf;shadow=1;" vertex="1" parent="1">
          <mxGeometry x="1839" y="110" width="280" height="130" as="geometry" />
        </mxCell>
        <mxCell id="Ihp9EkSwN32YHoUl-qDa-27" value="" style="endArrow=block;html=1;rounded=0;endFill=1;strokeWidth=2;fontSize=36;edgeStyle=orthogonalEdgeStyle;entryX=0.5;entryY=1;entryDx=0;entryDy=0;" edge="1" parent="1" target="Ihp9EkSwN32YHoUl-qDa-26">
          <mxGeometry width="50" height="50" relative="1" as="geometry">
            <mxPoint x="1979" y="429" as="sourcePoint" />
            <mxPoint x="2095.75" y="584.17" as="targetPoint" />
            <Array as="points">
              <mxPoint x="1980" y="429" />
              <mxPoint x="1980" y="250" />
            </Array>
          </mxGeometry>
        </mxCell>
        <mxCell id="Ihp9EkSwN32YHoUl-qDa-28" value="&lt;font style=&quot;font-size: 36px&quot;&gt;Contrastive&lt;/font&gt;" style="rounded=1;whiteSpace=wrap;html=1;fontSize=16;strokeWidth=2;fillColor=#dae8fc;align=center;strokeColor=#6c8ebf;shadow=1;" vertex="1" parent="1">
          <mxGeometry x="1449" y="20" width="311" height="80" as="geometry" />
        </mxCell>
        <mxCell id="Ihp9EkSwN32YHoUl-qDa-29" value="" style="endArrow=block;html=1;rounded=0;exitX=0.5;exitY=0;exitDx=0;exitDy=0;entryX=0;entryY=0.5;entryDx=0;entryDy=0;endFill=1;strokeWidth=2;fontSize=36;edgeStyle=orthogonalEdgeStyle;" edge="1" parent="1" target="Ihp9EkSwN32YHoUl-qDa-28">
          <mxGeometry width="50" height="50" relative="1" as="geometry">
            <mxPoint x="1269.5" y="120" as="sourcePoint" />
            <mxPoint x="1401.4999999999995" y="-54.75" as="targetPoint" />
            <Array as="points">
              <mxPoint x="1270" y="60" />
            </Array>
          </mxGeometry>
        </mxCell>
        <mxCell id="Ihp9EkSwN32YHoUl-qDa-30" value="" style="endArrow=block;html=1;rounded=0;entryX=1;entryY=0.5;entryDx=0;entryDy=0;endFill=1;strokeWidth=2;fontSize=36;edgeStyle=orthogonalEdgeStyle;exitX=0.304;exitY=0.008;exitDx=0;exitDy=0;exitPerimeter=0;" edge="1" parent="1" source="Ihp9EkSwN32YHoUl-qDa-26" target="Ihp9EkSwN32YHoUl-qDa-28">
          <mxGeometry width="50" height="50" relative="1" as="geometry">
            <mxPoint x="1925" y="100" as="sourcePoint" />
            <mxPoint x="2104.75" y="60" as="targetPoint" />
            <Array as="points">
              <mxPoint x="1924" y="60" />
            </Array>
          </mxGeometry>
        </mxCell>
        <mxCell id="Ihp9EkSwN32YHoUl-qDa-33" value="" style="rounded=1;whiteSpace=wrap;html=1;fontSize=16;fontColor=#000000;strokeWidth=2;fillColor=none;align=center;strokeColor=#000000;shadow=0;dashed=1;" vertex="1" parent="1">
          <mxGeometry x="2409.5" y="-30.5" width="220" height="52.5" as="geometry" />
        </mxCell>
        <mxCell id="Ihp9EkSwN32YHoUl-qDa-34" value="&lt;font color=&quot;#0d0d0d&quot;&gt;v1&lt;/font&gt;" style="ellipse;whiteSpace=wrap;html=1;aspect=fixed;fontSize=19;fontColor=#3399FF;strokeWidth=2;fillColor=none;strokeColor=#6C8EBF;" vertex="1" parent="1">
          <mxGeometry x="2429.5" y="-23" width="37.5" height="37.5" as="geometry" />
        </mxCell>
        <mxCell id="Ihp9EkSwN32YHoUl-qDa-35" value="&lt;font color=&quot;#0d0d0d&quot;&gt;v2&lt;/font&gt;" style="ellipse;whiteSpace=wrap;html=1;aspect=fixed;fontSize=19;fontColor=#3399FF;strokeWidth=2;fillColor=none;strokeColor=#6C8EBF;" vertex="1" parent="1">
          <mxGeometry x="2500.75" y="-23" width="37.5" height="37.5" as="geometry" />
        </mxCell>
        <mxCell id="Ihp9EkSwN32YHoUl-qDa-36" value="&lt;font color=&quot;#0d0d0d&quot;&gt;v3&lt;/font&gt;" style="ellipse;whiteSpace=wrap;html=1;aspect=fixed;fontSize=19;fontColor=#3399FF;strokeWidth=2;fillColor=none;strokeColor=#6C8EBF;" vertex="1" parent="1">
          <mxGeometry x="2570" y="-22.5" width="37" height="37" as="geometry" />
        </mxCell>
        <mxCell id="Ihp9EkSwN32YHoUl-qDa-37" value="" style="rounded=1;whiteSpace=wrap;html=1;fontSize=16;fontColor=#000000;strokeWidth=2;fillColor=none;align=center;strokeColor=#FFB570;shadow=0;dashed=1;" vertex="1" parent="1">
          <mxGeometry x="2150" y="-22.5" width="220" height="52.5" as="geometry" />
        </mxCell>
        <mxCell id="Ihp9EkSwN32YHoUl-qDa-38" value="&lt;font color=&quot;#0d0d0d&quot;&gt;p1&lt;/font&gt;" style="ellipse;whiteSpace=wrap;html=1;aspect=fixed;fontSize=19;fontColor=#3399FF;strokeWidth=2;fillColor=none;strokeColor=#6C8EBF;" vertex="1" parent="1">
          <mxGeometry x="2171.25" y="-15" width="37.5" height="37.5" as="geometry" />
        </mxCell>
        <mxCell id="Ihp9EkSwN32YHoUl-qDa-39" value="&lt;font color=&quot;#0d0d0d&quot;&gt;p2&lt;/font&gt;" style="ellipse;whiteSpace=wrap;html=1;aspect=fixed;fontSize=19;fontColor=#3399FF;strokeWidth=2;fillColor=none;strokeColor=#6C8EBF;" vertex="1" parent="1">
          <mxGeometry x="2220" y="-17.5" width="42.5" height="42.5" as="geometry" />
        </mxCell>
        <mxCell id="Ihp9EkSwN32YHoUl-qDa-40" value="&lt;font color=&quot;#0d0d0d&quot;&gt;pn&lt;/font&gt;" style="ellipse;whiteSpace=wrap;html=1;aspect=fixed;fontSize=19;fontColor=#3399FF;strokeWidth=2;fillColor=none;strokeColor=#6C8EBF;" vertex="1" parent="1">
          <mxGeometry x="2321.25" y="-17.5" width="42.5" height="42.5" as="geometry" />
        </mxCell>
        <mxCell id="Ihp9EkSwN32YHoUl-qDa-41" value="&lt;b&gt;&lt;font style=&quot;font-size: 36px&quot;&gt;...&lt;/font&gt;&lt;/b&gt;" style="text;html=1;resizable=0;autosize=1;align=center;verticalAlign=middle;points=[];fillColor=none;strokeColor=none;rounded=0;fontSize=24;" vertex="1" parent="1">
          <mxGeometry x="2262.5" y="-22.5" width="50" height="40" as="geometry" />
        </mxCell>
        <mxCell id="Ihp9EkSwN32YHoUl-qDa-42" value="&lt;font style=&quot;font-size: 36px&quot;&gt;Dropout&lt;/font&gt;" style="rounded=1;whiteSpace=wrap;html=1;fontSize=16;strokeWidth=2;fillColor=#dae8fc;align=center;strokeColor=#6c8ebf;shadow=1;" vertex="1" parent="1">
          <mxGeometry x="2167.5" y="-166.75" width="185" height="80" as="geometry" />
        </mxCell>
        <mxCell id="Ihp9EkSwN32YHoUl-qDa-43" value="&lt;font style=&quot;font-size: 36px&quot;&gt;Random mask&lt;/font&gt;" style="rounded=1;whiteSpace=wrap;html=1;fontSize=16;strokeWidth=2;fillColor=#dae8fc;align=center;strokeColor=#6c8ebf;shadow=1;" vertex="1" parent="1">
          <mxGeometry x="2424.5" y="-166.75" width="185" height="80" as="geometry" />
        </mxCell>
        <mxCell id="Ihp9EkSwN32YHoUl-qDa-44" value="" style="rounded=1;whiteSpace=wrap;html=1;fontSize=16;fontColor=#000000;strokeWidth=2;fillColor=none;align=center;strokeColor=#FFB570;shadow=0;dashed=1;" vertex="1" parent="1">
          <mxGeometry x="2173.75" y="-266.75" width="220" height="52.5" as="geometry" />
        </mxCell>
        <mxCell id="Ihp9EkSwN32YHoUl-qDa-45" value="&lt;font color=&quot;#0d0d0d&quot;&gt;p2&#39;&lt;/font&gt;" style="ellipse;whiteSpace=wrap;html=1;aspect=fixed;fontSize=19;fontColor=#3399FF;strokeWidth=2;fillColor=none;strokeColor=#6C8EBF;" vertex="1" parent="1">
          <mxGeometry x="2257.25" y="-260.75" width="42.5" height="42.5" as="geometry" />
        </mxCell>
        <mxCell id="Ihp9EkSwN32YHoUl-qDa-46" value="&lt;font color=&quot;#0d0d0d&quot;&gt;pn&#39;&lt;/font&gt;" style="ellipse;whiteSpace=wrap;html=1;aspect=fixed;fontSize=19;fontColor=#3399FF;strokeWidth=2;fillColor=none;strokeColor=#6C8EBF;" vertex="1" parent="1">
          <mxGeometry x="2345" y="-261.75" width="42.5" height="42.5" as="geometry" />
        </mxCell>
        <mxCell id="Ihp9EkSwN32YHoUl-qDa-47" value="&lt;font color=&quot;#0d0d0d&quot;&gt;p1&#39;&lt;/font&gt;" style="ellipse;whiteSpace=wrap;html=1;aspect=fixed;fontSize=19;fontColor=#3399FF;strokeWidth=2;fillColor=none;strokeColor=#6C8EBF;" vertex="1" parent="1">
          <mxGeometry x="2188.5" y="-260.75" width="42.5" height="42.5" as="geometry" />
        </mxCell>
        <mxCell id="Ihp9EkSwN32YHoUl-qDa-48" value="" style="rounded=1;whiteSpace=wrap;html=1;fontSize=16;fontColor=#000000;strokeWidth=2;fillColor=none;align=center;strokeColor=#000000;shadow=0;dashed=1;" vertex="1" parent="1">
          <mxGeometry x="2424.5" y="-265.75" width="220" height="52.5" as="geometry" />
        </mxCell>
        <mxCell id="Ihp9EkSwN32YHoUl-qDa-49" value="&lt;font color=&quot;#0d0d0d&quot;&gt;v1&lt;/font&gt;" style="ellipse;whiteSpace=wrap;html=1;aspect=fixed;fontSize=19;fontColor=#3399FF;strokeWidth=2;fillColor=none;strokeColor=#6C8EBF;" vertex="1" parent="1">
          <mxGeometry x="2444.5" y="-258.25" width="37.5" height="37.5" as="geometry" />
        </mxCell>
        <mxCell id="Ihp9EkSwN32YHoUl-qDa-50" value="" style="ellipse;whiteSpace=wrap;html=1;aspect=fixed;fontSize=19;fontColor=#3399FF;strokeWidth=2;fillColor=none;strokeColor=#6C8EBF;dashed=1;" vertex="1" parent="1">
          <mxGeometry x="2513.75" y="-259.75" width="41.5" height="41.5" as="geometry" />
        </mxCell>
        <mxCell id="Ihp9EkSwN32YHoUl-qDa-51" value="&lt;font color=&quot;#0d0d0d&quot;&gt;v3&lt;/font&gt;" style="ellipse;whiteSpace=wrap;html=1;aspect=fixed;fontSize=19;fontColor=#3399FF;strokeWidth=2;fillColor=none;strokeColor=#6C8EBF;" vertex="1" parent="1">
          <mxGeometry x="2587.5" y="-255.25" width="37" height="37" as="geometry" />
        </mxCell>
        <mxCell id="Ihp9EkSwN32YHoUl-qDa-52" value="" style="endArrow=block;html=1;rounded=0;endFill=1;strokeWidth=2;fontSize=36;" edge="1" parent="1">
          <mxGeometry width="50" height="50" relative="1" as="geometry">
            <mxPoint x="2513.75" y="-30.5" as="sourcePoint" />
            <mxPoint x="2513.75" y="-80.5" as="targetPoint" />
          </mxGeometry>
        </mxCell>
        <mxCell id="Ihp9EkSwN32YHoUl-qDa-53" value="" style="endArrow=block;html=1;rounded=0;endFill=1;strokeWidth=2;fontSize=36;" edge="1" parent="1">
          <mxGeometry width="50" height="50" relative="1" as="geometry">
            <mxPoint x="2261.91" y="-26.75" as="sourcePoint" />
            <mxPoint x="2261.91" y="-76.75" as="targetPoint" />
          </mxGeometry>
        </mxCell>
        <mxCell id="Ihp9EkSwN32YHoUl-qDa-54" value="" style="endArrow=block;html=1;rounded=0;endFill=1;strokeWidth=2;entryX=0.402;entryY=0.997;entryDx=0;entryDy=0;entryPerimeter=0;fontSize=36;" edge="1" target="Ihp9EkSwN32YHoUl-qDa-44" parent="1">
          <mxGeometry width="50" height="50" relative="1" as="geometry">
            <mxPoint x="2262.5" y="-156.75" as="sourcePoint" />
            <mxPoint x="2262.5" y="-206.75" as="targetPoint" />
          </mxGeometry>
        </mxCell>
        <mxCell id="Ihp9EkSwN32YHoUl-qDa-55" value="" style="endArrow=block;html=1;rounded=0;endFill=1;strokeWidth=2;fontSize=36;" edge="1" parent="1">
          <mxGeometry width="50" height="50" relative="1" as="geometry">
            <mxPoint x="2513.75" y="-166.75" as="sourcePoint" />
            <mxPoint x="2513.75" y="-206.75" as="targetPoint" />
          </mxGeometry>
        </mxCell>
        <mxCell id="Ihp9EkSwN32YHoUl-qDa-56" value="" style="rounded=1;whiteSpace=wrap;html=1;fontSize=16;strokeWidth=2;fillColor=#ffe6cc;align=center;strokeColor=#d79b00;shadow=0;dashed=1;opacity=30;" vertex="1" parent="1">
          <mxGeometry x="2113" y="-351" width="607" height="441" as="geometry" />
        </mxCell>
        <mxCell id="Ihp9EkSwN32YHoUl-qDa-57" value="&lt;font style=&quot;font-size: 48px&quot;&gt;&amp;nbsp;q&lt;/font&gt;" style="text;html=1;resizable=0;autosize=1;align=center;verticalAlign=middle;points=[];fillColor=none;strokeColor=none;rounded=0;" vertex="1" parent="1">
          <mxGeometry x="2377.5" y="-320" width="60" height="30" as="geometry" />
        </mxCell>
      </root>
    </mxGraphModel>
  </diagram>
</mxfile>
